<svg width="528" height="49" viewBox="0 0 528 49" fill="none" xmlns="http://www.w3.org/2000/svg">
<path opacity="0.8" d="M26.1944 6.72H30.3944V43.36H26.1944V6.72ZM29.4344 20.76H36.0744V24.24H29.4344V20.76ZM3.55438 30.92H6.51438C12.9944 30.92 17.7944 30.68 23.1944 29.68L23.6344 33.2C18.0344 34.2 13.1544 34.4 6.51438 34.4H3.55438V30.92ZM3.55438 10.2H20.5544V13.6H7.71438V32.52H3.55438V10.2ZM55.3513 7.52C63.3513 7.52 68.3913 10.16 68.3913 14.52C68.3913 18.92 63.3513 21.52 55.3513 21.52C47.3913 21.52 42.3513 18.92 42.3513 14.52C42.3513 10.16 47.3913 7.52 55.3513 7.52ZM55.3513 10.8C49.9113 10.8 46.6713 12.08 46.6713 14.52C46.6713 16.92 49.9113 18.24 55.3513 18.24C60.7913 18.24 64.0713 16.92 64.0713 14.52C64.0713 12.08 60.7913 10.8 55.3513 10.8ZM42.7913 30.64H67.8713V42.88H42.7913V30.64ZM63.7913 34H46.9113V39.52H63.7913V34ZM38.8313 24.2H71.8713V27.52H38.8313V24.2ZM112.053 6.76H116.053V43.32H112.053V6.76ZM100.613 20.4H106.133V24.08H100.613V20.4ZM104.893 7.56H108.853V41.48H104.893V7.56ZM84.9325 11.16H101.613V14.56H84.9325V11.16ZM84.7325 34.64L84.2525 31.16C88.9325 31.16 96.7325 31.04 102.293 30.28L102.573 33.32C96.8525 34.48 89.3325 34.64 84.7325 34.64ZM87.6125 13.32H91.4125V32.12H87.6125V13.32ZM95.0925 13.32H98.8925V32.12H95.0925V13.32ZM147.329 6.72H151.529V43.36H147.329V6.72ZM132.049 9.44C137.529 9.44 141.489 14.44 141.489 22.32C141.489 30.2 137.529 35.24 132.049 35.24C126.609 35.24 122.649 30.2 122.649 22.32C122.649 14.44 126.609 9.44 132.049 9.44ZM132.049 13.24C128.849 13.24 126.649 16.64 126.649 22.32C126.649 28.04 128.849 31.48 132.049 31.48C135.249 31.48 137.449 28.04 137.449 22.32C137.449 16.64 135.249 13.24 132.049 13.24ZM167.526 12.24H170.886V17.36C170.886 25.4 166.766 33.36 160.486 36.36L158.086 33.04C163.726 30.44 167.526 23.6 167.526 17.36V12.24ZM168.406 12.24H171.726V17.36C171.726 23.4 175.486 29.72 181.206 32.12L178.886 35.44C172.526 32.6 168.406 25.2 168.406 17.36V12.24ZM159.406 10.4H179.846V13.88H159.406V10.4ZM184.126 6.76H188.326V43.32H184.126V6.76ZM209.763 20.64H216.243V24.04H209.763V20.64ZM222.243 6.76H226.243V43.32H222.243V6.76ZM214.883 7.44H218.843V41.56H214.883V7.44ZM203.243 9.6C208.043 9.6 211.123 14.56 211.123 22.56C211.123 30.6 208.043 35.56 203.243 35.56C198.483 35.56 195.403 30.6 195.403 22.56C195.403 14.56 198.483 9.6 203.243 9.6ZM203.243 13.52C200.763 13.52 199.243 16.8 199.243 22.56C199.243 28.32 200.763 31.6 203.243 31.6C205.763 31.6 207.283 28.32 207.283 22.56C207.283 16.8 205.763 13.52 203.243 13.52ZM250.16 18.72H260.08V22.12H250.16V18.72ZM240.84 9.76H244.24V15.76C244.24 24.36 240.48 32.52 234.2 35.76L231.56 32.4C237.32 29.64 240.84 22.6 240.84 15.76V9.76ZM241.68 9.76H245.04V15.76C245.04 22.52 248.52 29.16 254.16 31.76L251.64 35.12C245.32 31.96 241.68 24.24 241.68 15.76V9.76ZM258 6.72H262.16V43.36H258V6.72ZM303.501 6.72H307.701V43.36H303.501V6.72ZM288.221 9.44C293.701 9.44 297.661 14.44 297.661 22.32C297.661 30.2 293.701 35.24 288.221 35.24C282.781 35.24 278.821 30.2 278.821 22.32C278.821 14.44 282.781 9.44 288.221 9.44ZM288.221 13.24C285.021 13.24 282.821 16.64 282.821 22.32C282.821 28.04 285.021 31.48 288.221 31.48C291.421 31.48 293.621 28.04 293.621 22.32C293.621 16.64 291.421 13.24 288.221 13.24ZM324.258 9.44C329.658 9.44 333.498 14.44 333.498 22.32C333.498 30.2 329.658 35.24 324.258 35.24C318.858 35.24 315.018 30.2 315.018 22.32C315.018 14.44 318.858 9.44 324.258 9.44ZM324.258 13.24C321.138 13.24 319.018 16.64 319.018 22.32C319.018 28.04 321.138 31.48 324.258 31.48C327.418 31.48 329.538 28.04 329.538 22.32C329.538 16.64 327.418 13.24 324.258 13.24ZM340.578 6.72H344.738V43.36H340.578V6.72ZM332.218 20.36H342.378V23.72H332.218V20.36ZM360.535 9.92H363.975V12.48C363.975 18.96 360.135 24.6 353.615 26.72L351.495 23.4C357.255 21.64 360.535 17.16 360.535 12.48V9.92ZM361.375 9.92H364.815V12.48C364.815 16.92 368.135 21.12 373.775 22.8L371.695 26.08C365.255 24.08 361.375 18.72 361.375 12.48V9.92ZM352.655 8.96H372.615V12.32H352.655V8.96ZM377.135 6.76H381.335V26.56H377.135V6.76ZM357.455 28.28H361.575V32.16H377.175V28.28H381.335V42.88H357.455V28.28ZM361.575 35.44V39.48H377.175V35.44H361.575ZM414.012 6.76H418.172V43.32H414.012V6.76ZM390.132 10.28H394.292V32.96H390.132V10.28ZM390.132 30.48H393.252C398.692 30.48 404.532 30.08 410.652 28.84L411.132 32.36C404.812 33.68 398.932 34.08 393.252 34.08H390.132V30.48ZM448.929 6.72H453.129V43.36H448.929V6.72ZM452.169 20.76H458.809V24.24H452.169V20.76ZM426.289 30.92H429.249C435.729 30.92 440.529 30.68 445.929 29.68L446.369 33.2C440.769 34.2 435.889 34.4 429.249 34.4H426.289V30.92ZM426.289 10.2H443.289V13.6H430.449V32.52H426.289V10.2Z" fill="#717171"/>
<g opacity="0.8">
<path d="M494.727 24.338H512.597M512.597 24.338L504.779 16.5197M512.597 24.338L504.779 32.1563" stroke="#717171" stroke-width="3.5" stroke-linecap="round" stroke-linejoin="round"/>
<path d="M503.662 46.6761C515.999 46.6761 526 36.6749 526 24.3381C526 12.0011 515.999 2 503.662 2C491.325 2 481.324 12.0011 481.324 24.3381C481.324 36.6749 491.325 46.6761 503.662 46.6761Z" stroke="#717171" stroke-width="3.5" stroke-linecap="round" stroke-linejoin="round"/>
</g>
</svg>
